# 200 vertices, 162 faces
mtllib output.mtl
v 0 0 1
vn 0 0 1
v 0 1 1
vn 0 0 1
v 0 2 1
vn 0 0 1
v 0 3 1
vn 0 0 1
v 0 4 1
vn 0 0 1
v 0 5 1
vn 0 0 1
v 0 6 1
vn 0 0 1
v 0 7 1
vn 0 0 1
v 0 8 1
vn 0 0 1
v 0 9 1
vn 0 0 1
v 1 0 1
vn 0 0 1
v 1 1 1
vn 0 0 1
v 1 2 1
vn 0 0 1
v 1 3 1
vn 0 0 1
v 1 4 1
vn 0 0 1
v 1 5 1
vn 0 0 1
v 1 6 1
vn 0 0 1
v 1 7 1
vn 0 0 1
v 1 8 1
vn 0 0 1
v 1 9 1
vn 0 0 1
v 2 0 1
vn 0 0 1
v 2 1 1
vn 0 0 1
v 2 2 1
vn 0 0 1
v 2 3 1
vn 0 0 1
v 2 4 1
vn 0 0 1
v 2 5 1
vn 0 0 1
v 2 6 1
vn 0 0 1
v 2 7 1
vn 0 0 1
v 2 8 1
vn 0 0 1
v 2 9 1
vn 0 0 1
v 3 0 1
vn 0 0 1
v 3 1 1
vn 0 0 1
v 3 2 1
vn 0 0 1
v 3 3 1
vn 0 0 1
v 3 4 1
vn 0 0 1
v 3 5 1
vn 0 0 1
v 3 6 1
vn 0 0 1
v 3 7 1
vn 0 0 1
v 3 8 1
vn 0 0 1
v 3 9 1
vn 0 0 1
v 4 0 1
vn 0 0 1
v 4 1 1
vn 0 0 1
v 4 2 1
vn 0 0 1
v 4 3 1
vn 0 0 1
v 4 4 1
vn 0 0 1
v 4 5 1
vn 0 0 1
v 4 6 1
vn 0 0 1
v 4 7 1
vn 0 0 1
v 4 8 1
vn 0 0 1
v 4 9 1
vn 0 0 1
v 5 0 1
vn 0 0 1
v 5 1 1
vn 0 0 1
v 5 2 1
vn 0 0 1
v 5 3 1
vn 0 0 1
v 5 4 1
vn 0 0 1
v 5 5 1
vn 0 0 1
v 5 6 1
vn 0 0 1
v 5 7 1
vn 0 0 1
v 5 8 1
vn 0 0 1
v 5 9 1
vn 0 0 1
v 6 0 1
vn 0 0 1
v 6 1 1
vn 0 0 1
v 6 2 1
vn 0 0 1
v 6 3 1
vn 0 0 1
v 6 4 1
vn 0 0 1
v 6 5 1
vn 0 0 1
v 6 6 1
vn 0 0 1
v 6 7 1
vn 0 0 1
v 6 8 1
vn 0 0 1
v 6 9 1
vn 0 0 1
v 7 0 1
vn 0 0 1
v 7 1 1
vn 0 0 1
v 7 2 1
vn 0 0 1
v 7 3 1
vn 0 0 1
v 7 4 1
vn 0 0 1
v 7 5 1
vn 0 0 1
v 7 6 1
vn 0 0 1
v 7 7 1
vn 0 0 1
v 7 8 1
vn 0 0 1
v 7 9 1
vn 0 0 1
v 8 0 1
vn 0 0 1
v 8 1 1
vn 0 0 1
v 8 2 1
vn 0 0 1
v 8 3 1
vn 0 0 1
v 8 4 1
vn 0 0 1
v 8 5 1
vn 0 0 1
v 8 6 1
vn 0 0 1
v 8 7 1
vn 0 0 1
v 8 8 1
vn 0 0 1
v 8 9 1
vn 0 0 1
v 9 0 1
vn 0 0 1
v 9 1 1
vn 0 0 1
v 9 2 1
vn 0 0 1
v 9 3 1
vn 0 0 1
v 9 4 1
vn 0 0 1
v 9 5 1
vn 0 0 1
v 9 6 1
vn 0 0 1
v 9 7 1
vn 0 0 1
v 9 8 1
vn 0 0 1
v 9 9 1
vn 0 0 1
v 10 0 1
vn 0 0 1
v 10 1 1
vn 0 0 1
v 10 2 1
vn 0 0 1
v 10 3 1
vn 0 0 1
v 10 4 1
vn 0 0 1
v 10 5 1
vn 0 0 1
v 10 6 1
vn 0 0 1
v 10 7 1
vn 0 0 1
v 10 8 1
vn 0 0 1
v 10 9 1
vn 0 0 1
v 11 0 1
vn 0 0 1
v 11 1 1
vn 0 0 1
v 11 2 1
vn 0 0 1
v 11 3 1
vn 0 0 1
v 11 4 1
vn 0 0 1
v 11 5 1
vn 0 0 1
v 11 6 1
vn 0 0 1
v 11 7 1
vn 0 0 1
v 11 8 1
vn 0 0 1
v 11 9 1
vn 0 0 1
v 12 0 1
vn 0 0 1
v 12 1 1
vn 0 0 1
v 12 2 1
vn 0 0 1
v 12 3 1
vn 0 0 1
v 12 4 1
vn 0 0 1
v 12 5 1
vn 0 0 1
v 12 6 1
vn 0 0 1
v 12 7 1
vn 0 0 1
v 12 8 1
vn 0 0 1
v 12 9 1
vn 0 0 1
v 13 0 1
vn 0 0 1
v 13 1 1
vn 0 0 1
v 13 2 1
vn 0 0 1
v 13 3 1
vn 0 0 1
v 13 4 1
vn 0 0 1
v 13 5 1
vn 0 0 1
v 13 6 1
vn 0 0 1
v 13 7 1
vn 0 0 1
v 13 8 1
vn 0 0 1
v 13 9 1
vn 0 0 1
v 14 0 1
vn 0 0 1
v 14 1 1
vn 0 0 1
v 14 2 1
vn 0 0 1
v 14 3 1
vn 0 0 1
v 14 4 1
vn 0 0 1
v 14 5 1
vn 0 0 1
v 14 6 1
vn 0 0 1
v 14 7 1
vn 0 0 1
v 14 8 1
vn 0 0 1
v 14 9 1
vn 0 0 1
v 15 0 1
vn 0 0 1
v 15 1 1
vn 0 0 1
v 15 2 1
vn 0 0 1
v 15 3 1
vn 0 0 1
v 15 4 1
vn 0 0 1
v 15 5 1
vn 0 0 1
v 15 6 1
vn 0 0 1
v 15 7 1
vn 0 0 1
v 15 8 1
vn 0 0 1
v 15 9 1
vn 0 0 1
v 16 0 1
vn 0 0 1
v 16 1 1
vn 0 0 1
v 16 2 1
vn 0 0 1
v 16 3 1
vn 0 0 1
v 16 4 1
vn 0 0 1
v 16 5 1
vn 0 0 1
v 16 6 1
vn 0 0 1
v 16 7 1
vn 0 0 1
v 16 8 1
vn 0 0 1
v 16 9 1
vn 0 0 1
v 17 0 1
vn 0 0 1
v 17 1 1
vn 0 0 1
v 17 2 1
vn 0 0 1
v 17 3 1
vn 0 0 1
v 17 4 1
vn 0 0 1
v 17 5 1
vn 0 0 1
v 17 6 1
vn 0 0 1
v 17 7 1
vn 0 0 1
v 17 8 1
vn 0 0 1
v 17 9 1
vn 0 0 1
v 18 0 1
vn 0 0 1
v 18 1 1
vn 0 0 1
v 18 2 1
vn 0 0 1
v 18 3 1
vn 0 0 1
v 18 4 1
vn 0 0 1
v 18 5 1
vn 0 0 1
v 18 6 1
vn 0 0 1
v 18 7 1
vn 0 0 1
v 18 8 1
vn 0 0 1
v 18 9 1
vn 0 0 1
v 19 0 1
vn 0 0 0
v 19 1 1
vn 0 0 0
v 19 2 1
vn 0 0 0
v 19 3 1
vn 0 0 0
v 19 4 1
vn 0 0 0
v 19 5 1
vn 0 0 0
v 19 6 1
vn 0 0 0
v 19 7 1
vn 0 0 0
v 19 8 1
vn 0 0 0
v 19 9 1
vn 0 0 0
usemtl mat000
f 12//12 2//2 1//1 11//11
usemtl mat001
f 13//13 3//3 2//2 12//12
f 14//14 4//4 3//3 13//13
f 15//15 5//5 4//4 14//14
f 16//16 6//6 5//5 15//15
f 17//17 7//7 6//6 16//16
f 18//18 8//8 7//7 17//17
f 19//19 9//9 8//8 18//18
f 20//20 10//10 9//9 19//19
f 22//22 12//12 11//11 21//21
f 23//23 13//13 12//12 22//22
f 24//24 14//14 13//13 23//23
f 25//25 15//15 14//14 24//24
f 26//26 16//16 15//15 25//25
f 27//27 17//17 16//16 26//26
f 28//28 18//18 17//17 27//27
f 29//29 19//19 18//18 28//28
f 30//30 20//20 19//19 29//29
f 32//32 22//22 21//21 31//31
f 33//33 23//23 22//22 32//32
f 34//34 24//24 23//23 33//33
f 35//35 25//25 24//24 34//34
f 36//36 26//26 25//25 35//35
f 37//37 27//27 26//26 36//36
f 38//38 28//28 27//27 37//37
f 39//39 29//29 28//28 38//38
f 40//40 30//30 29//29 39//39
f 42//42 32//32 31//31 41//41
f 43//43 33//33 32//32 42//42
f 44//44 34//34 33//33 43//43
f 45//45 35//35 34//34 44//44
f 46//46 36//36 35//35 45//45
f 47//47 37//37 36//36 46//46
f 48//48 38//38 37//37 47//47
f 49//49 39//39 38//38 48//48
f 50//50 40//40 39//39 49//49
f 52//52 42//42 41//41 51//51
f 53//53 43//43 42//42 52//52
f 54//54 44//44 43//43 53//53
f 55//55 45//45 44//44 54//54
f 56//56 46//46 45//45 55//55
f 57//57 47//47 46//46 56//56
f 58//58 48//48 47//47 57//57
f 59//59 49//49 48//48 58//58
f 60//60 50//50 49//49 59//59
f 62//62 52//52 51//51 61//61
f 63//63 53//53 52//52 62//62
f 64//64 54//54 53//53 63//63
f 65//65 55//55 54//54 64//64
f 66//66 56//56 55//55 65//65
f 67//67 57//57 56//56 66//66
f 68//68 58//58 57//57 67//67
f 69//69 59//59 58//58 68//68
f 70//70 60//60 59//59 69//69
f 72//72 62//62 61//61 71//71
f 73//73 63//63 62//62 72//72
f 74//74 64//64 63//63 73//73
f 75//75 65//65 64//64 74//74
f 76//76 66//66 65//65 75//75
f 77//77 67//67 66//66 76//76
f 78//78 68//68 67//67 77//77
f 79//79 69//69 68//68 78//78
f 80//80 70//70 69//69 79//79
f 82//82 72//72 71//71 81//81
f 83//83 73//73 72//72 82//82
f 84//84 74//74 73//73 83//83
f 85//85 75//75 74//74 84//84
f 86//86 76//76 75//75 85//85
f 87//87 77//77 76//76 86//86
f 88//88 78//78 77//77 87//87
f 89//89 79//79 78//78 88//88
f 90//90 80//80 79//79 89//89
f 92//92 82//82 81//81 91//91
f 93//93 83//83 82//82 92//92
f 94//94 84//84 83//83 93//93
f 95//95 85//85 84//84 94//94
f 96//96 86//86 85//85 95//95
f 97//97 87//87 86//86 96//96
f 98//98 88//88 87//87 97//97
f 99//99 89//89 88//88 98//98
f 100//100 90//90 89//89 99//99
f 102//102 92//92 91//91 101//101
f 103//103 93//93 92//92 102//102
f 104//104 94//94 93//93 103//103
f 105//105 95//95 94//94 104//104
f 106//106 96//96 95//95 105//105
f 107//107 97//97 96//96 106//106
f 108//108 98//98 97//97 107//107
f 109//109 99//99 98//98 108//108
f 110//110 100//100 99//99 109//109
f 112//112 102//102 101//101 111//111
f 113//113 103//103 102//102 112//112
f 114//114 104//104 103//103 113//113
f 115//115 105//105 104//104 114//114
f 116//116 106//106 105//105 115//115
f 117//117 107//107 106//106 116//116
f 118//118 108//108 107//107 117//117
f 119//119 109//109 108//108 118//118
f 120//120 110//110 109//109 119//119
f 122//122 112//112 111//111 121//121
f 123//123 113//113 112//112 122//122
f 124//124 114//114 113//113 123//123
f 125//125 115//115 114//114 124//124
f 126//126 116//116 115//115 125//125
f 127//127 117//117 116//116 126//126
f 128//128 118//118 117//117 127//127
f 129//129 119//119 118//118 128//128
f 130//130 120//120 119//119 129//129
f 132//132 122//122 121//121 131//131
f 133//133 123//123 122//122 132//132
f 134//134 124//124 123//123 133//133
f 135//135 125//125 124//124 134//134
f 136//136 126//126 125//125 135//135
f 137//137 127//127 126//126 136//136
f 138//138 128//128 127//127 137//137
f 139//139 129//129 128//128 138//138
f 140//140 130//130 129//129 139//139
f 142//142 132//132 131//131 141//141
f 143//143 133//133 132//132 142//142
f 144//144 134//134 133//133 143//143
f 145//145 135//135 134//134 144//144
f 146//146 136//136 135//135 145//145
f 147//147 137//137 136//136 146//146
f 148//148 138//138 137//137 147//147
f 149//149 139//139 138//138 148//148
f 150//150 140//140 139//139 149//149
f 152//152 142//142 141//141 151//151
f 153//153 143//143 142//142 152//152
f 154//154 144//144 143//143 153//153
f 155//155 145//145 144//144 154//154
f 156//156 146//146 145//145 155//155
f 157//157 147//147 146//146 156//156
f 158//158 148//148 147//147 157//157
f 159//159 149//149 148//148 158//158
f 160//160 150//150 149//149 159//159
f 162//162 152//152 151//151 161//161
f 163//163 153//153 152//152 162//162
f 164//164 154//154 153//153 163//163
f 165//165 155//155 154//154 164//164
f 166//166 156//156 155//155 165//165
f 167//167 157//157 156//156 166//166
f 168//168 158//158 157//157 167//167
f 169//169 159//159 158//158 168//168
f 170//170 160//160 159//159 169//169
f 172//172 162//162 161//161 171//171
f 173//173 163//163 162//162 172//172
f 174//174 164//164 163//163 173//173
f 175//175 165//165 164//164 174//174
f 176//176 166//166 165//165 175//175
f 177//177 167//167 166//166 176//176
f 178//178 168//168 167//167 177//177
f 179//179 169//169 168//168 178//178
f 180//180 170//170 169//169 179//179
f 182//182 172//172 171//171 181//181
f 183//183 173//173 172//172 182//182
f 184//184 174//174 173//173 183//183
f 185//185 175//175 174//174 184//184
f 186//186 176//176 175//175 185//185
f 187//187 177//177 176//176 186//186
f 188//188 178//178 177//177 187//187
f 189//189 179//179 178//178 188//188
f 190//190 180//180 179//179 189//189
